<svg width="300" height="237" viewBox="0 0 300 237" fill="none" xmlns="http://www.w3.org/2000/svg">
<g opacity="0.5">
<path d="M155.986 189.734C198.731 189.734 233.383 155.082 233.383 112.336C233.383 69.5906 198.731 34.9385 155.986 34.9385C113.24 34.9385 78.588 69.5906 78.588 112.336C78.588 155.082 113.24 189.734 155.986 189.734Z" fill="#DBE8EC" fill-opacity="0.76"/>
<path d="M157.236 90.235C169.205 90.235 178.909 80.5314 178.909 68.5616C178.909 56.5917 169.205 46.8882 157.236 46.8882C145.266 46.8882 135.562 56.5917 135.562 68.5616C135.562 80.5314 145.266 90.235 157.236 90.235Z" fill="#BADFDB"/>
<path d="M149.563 64.0485C149.562 64.0217 149.562 63.9949 149.562 63.9681C149.562 62.4552 150.009 60.976 150.848 59.7165C151.686 58.4571 152.878 57.4735 154.273 56.8895C155.669 56.3054 157.206 56.147 158.692 56.4341C160.177 56.7212 161.545 57.4409 162.622 58.503C163.7 59.565 164.439 60.9218 164.748 62.4029C165.056 63.884 164.92 65.4233 164.356 66.8272C163.793 68.2312 162.827 69.4372 161.579 70.2936C160.332 71.1501 158.86 71.6187 157.347 71.6406V78.6084" stroke="#FF8A5C" stroke-width="4" stroke-linecap="round" stroke-linejoin="round"/>
<path d="M240.266 145.063C243.786 145.063 246.639 142.21 246.639 138.69C246.639 135.171 243.786 132.318 240.266 132.318C236.747 132.318 233.894 135.171 233.894 138.69C233.894 142.21 236.747 145.063 240.266 145.063Z" fill="#B9D4DB"/>
<path d="M223.45 146.594C225.275 146.594 226.754 145.115 226.754 143.29C226.754 141.465 225.275 139.986 223.45 139.986C221.625 139.986 220.146 141.465 220.146 143.29C220.146 145.115 221.625 146.594 223.45 146.594Z" fill="#B9D4DB"/>
<path d="M231.84 127.818C234.447 127.818 236.561 125.705 236.561 123.097C236.561 120.49 234.447 118.377 231.84 118.377C229.233 118.377 227.119 120.49 227.119 123.097C227.119 125.705 229.233 127.818 231.84 127.818Z" fill="#B9D4DB"/>
<path d="M95.2583 187.432C99.4458 187.432 102.84 184.037 102.84 179.85C102.84 175.662 99.4458 172.267 95.2583 172.267C91.0708 172.267 87.6762 175.662 87.6762 179.85C87.6762 184.037 91.0708 187.432 95.2583 187.432Z" fill="#B9D4DB"/>
<path d="M80.7697 178.399C82.9509 178.399 84.7191 176.631 84.7191 174.45C84.7191 172.268 82.9509 170.5 80.7697 170.5C78.5885 170.5 76.8203 172.268 76.8203 174.45C76.8203 176.631 78.5885 178.399 80.7697 178.399Z" fill="#B9D4DB"/>
<path d="M84.3974 163.302C85.6555 163.302 86.6755 162.282 86.6755 161.024C86.6755 159.766 85.6555 158.746 84.3974 158.746C83.1392 158.746 82.1192 159.766 82.1192 161.024C82.1192 162.282 83.1392 163.302 84.3974 163.302Z" fill="#B9D4DB"/>
<path d="M97.0084 168.097C100.025 168.097 102.47 165.652 102.47 162.636C102.47 159.62 100.025 157.175 97.0084 157.175C93.9922 157.175 91.5471 159.62 91.5471 162.636C91.5471 165.652 93.9922 168.097 97.0084 168.097Z" fill="#B9D4DB"/>
<path d="M100.811 73.6094C104.998 73.6094 108.393 70.2147 108.393 66.0272C108.393 61.8397 104.998 58.4451 100.811 58.4451C96.6231 58.4451 93.2285 61.8397 93.2285 66.0272C93.2285 70.2147 96.6231 73.6094 100.811 73.6094Z" fill="#B9D4DB"/>
<path d="M101.118 54.5174C103.3 54.5174 105.068 52.7492 105.068 50.568C105.068 48.3868 103.3 46.6186 101.118 46.6186C98.9373 46.6186 97.1691 48.3868 97.1691 50.568C97.1691 52.7492 98.9373 54.5174 101.118 54.5174Z" fill="#B9D4DB"/>
<path d="M127.424 56.2938C129.312 56.2938 130.842 54.7635 130.842 52.8757C130.842 50.9879 129.312 49.4575 127.424 49.4575C125.536 49.4575 124.006 50.9879 124.006 52.8757C124.006 54.7635 125.536 56.2938 127.424 56.2938Z" fill="#B9D4DB"/>
<path d="M114.988 51.8321C116.246 51.8321 117.266 50.8122 117.266 49.554C117.266 48.2958 116.246 47.2758 114.988 47.2758C113.73 47.2758 112.71 48.2958 112.71 49.554C112.71 50.8122 113.73 51.8321 114.988 51.8321Z" fill="#B9D4DB"/>
<path d="M117.636 67.4506C120.652 67.4506 123.097 65.0054 123.097 61.9892C123.097 58.973 120.652 56.5278 117.636 56.5278C114.619 56.5278 112.174 58.973 112.174 61.9892C112.174 65.0054 114.619 67.4506 117.636 67.4506Z" fill="#B9D4DB"/>
<path d="M221.934 107.651H93.5176L89.3303 97.0352H221.934C222.099 97.0352 222.263 97.0676 222.415 97.1308C222.568 97.1939 222.706 97.2864 222.823 97.4031C222.939 97.5197 223.032 97.6582 223.095 97.8106C223.158 97.963 223.191 98.1264 223.191 98.2914V106.394C223.191 106.559 223.158 106.723 223.095 106.875C223.032 107.028 222.939 107.166 222.823 107.283C222.706 107.399 222.568 107.492 222.415 107.555C222.263 107.618 222.099 107.651 221.934 107.651Z" fill="#49BEB7"/>
<path d="M203.226 163.426H115.905C115.479 163.426 115.063 163.296 114.712 163.053C114.362 162.81 114.094 162.467 113.945 162.068L93.5176 107.651H217.462L205.268 161.792C205.164 162.256 204.905 162.67 204.534 162.967C204.162 163.264 203.701 163.426 203.226 163.426Z" fill="#FF8A5C"/>
<path d="M211.183 135.539C202.25 136.112 193.316 136.412 184.383 136.616C179.917 136.743 175.45 136.772 170.984 136.847L157.584 136.923C148.651 136.931 139.718 136.83 130.785 136.62C121.852 136.417 112.919 136.116 103.986 135.539C112.919 134.963 121.852 134.662 130.785 134.459C139.718 134.258 148.651 134.157 157.584 134.156L170.984 134.232C175.45 134.307 179.917 134.336 184.383 134.463C193.316 134.667 202.249 134.967 211.183 135.539Z" fill="#BADFDB"/>
<path d="M193.709 107.651C193.2 112.518 192.423 117.325 191.564 122.113C190.694 126.899 189.724 131.663 188.652 136.403C187.587 141.145 186.423 145.865 185.161 150.562C184.524 152.91 183.864 155.252 183.16 157.585C182.796 158.748 182.449 159.915 182.07 161.076L181.778 161.957C181.664 162.281 181.477 162.574 181.233 162.815C181.004 163.042 180.727 163.214 180.422 163.32C180.118 163.426 179.793 163.462 179.473 163.426C179.762 163.392 180.041 163.295 180.289 163.143C180.538 162.991 180.751 162.787 180.913 162.545C181.064 162.322 181.164 162.068 181.205 161.802L181.321 160.907C181.477 159.696 181.664 158.493 181.833 157.286C182.197 154.877 182.605 152.478 183.036 150.084C183.906 145.298 184.878 140.535 185.952 135.795C187.021 131.054 188.186 126.334 189.447 121.636C190.724 116.942 192.082 112.266 193.709 107.651ZM143.809 163.426C143.476 163.462 143.138 163.42 142.824 163.303C142.51 163.186 142.227 162.998 141.998 162.753C141.773 162.495 141.593 162.201 141.464 161.884L141.051 161.027C140.499 159.884 139.979 158.729 139.442 157.581C138.391 155.276 137.383 152.955 136.395 150.626C134.428 145.965 132.558 141.267 130.785 136.533C129.007 131.801 127.322 127.034 125.732 122.231C124.156 117.423 122.659 112.586 121.422 107.651C123.738 112.181 125.794 116.808 127.771 121.466C129.737 126.127 131.606 130.825 133.377 135.56C135.152 140.293 136.835 145.061 138.426 149.863C139.215 152.267 139.983 154.678 140.708 157.106C141.06 158.324 141.428 159.535 141.765 160.759L142.018 161.676C142.075 161.964 142.179 162.241 142.325 162.496C142.487 162.752 142.704 162.969 142.961 163.13C143.218 163.291 143.508 163.392 143.809 163.426Z" fill="#BADFDB"/>
<path d="M137.587 206.216C142.365 206.216 146.238 202.343 146.238 197.565C146.238 192.788 142.365 188.915 137.587 188.915C132.809 188.915 128.936 192.788 128.936 197.565C128.936 202.343 132.809 206.216 137.587 206.216Z" fill="#49BEB7"/>
<path d="M137.587 201.558C139.792 201.558 141.58 199.77 141.58 197.565C141.58 195.36 139.792 193.573 137.587 193.573C135.382 193.573 133.594 195.36 133.594 197.565C133.594 199.77 135.382 201.558 137.587 201.558Z" fill="#DBE8EC"/>
<path d="M187.488 206.216C192.266 206.216 196.139 202.343 196.139 197.565C196.139 192.788 192.266 188.915 187.488 188.915C182.71 188.915 178.837 192.788 178.837 197.565C178.837 202.343 182.71 206.216 187.488 206.216Z" fill="#49BEB7"/>
<path d="M187.488 201.558C189.693 201.558 191.481 199.77 191.481 197.565C191.481 195.36 189.693 193.573 187.488 193.573C185.283 193.573 183.495 195.36 183.495 197.565C183.495 199.77 185.283 201.558 187.488 201.558Z" fill="#DBE8EC"/>
<path d="M158.35 107.651C159.199 112.265 159.773 116.895 160.264 121.53C160.744 126.166 161.12 130.808 161.394 135.456C161.673 140.104 161.851 144.757 161.929 149.417C161.993 154.078 161.972 158.744 161.673 163.426C160.821 158.812 160.246 154.182 159.756 149.547C159.276 144.911 158.901 140.269 158.63 135.621C158.355 130.973 158.177 126.319 158.098 121.659C158.035 116.998 158.055 112.333 158.35 107.651Z" fill="#BADFDB"/>
<path d="M202.125 184.524H123.87C123.59 184.524 123.316 184.439 123.085 184.28C122.854 184.121 122.677 183.896 122.577 183.635L77.2545 65.4914H53.2482C52.881 65.4914 52.5288 65.3455 52.2692 65.0859C52.0095 64.8262 51.8636 64.474 51.8636 64.1068C51.8636 63.7396 52.0095 63.3874 52.2692 63.1277C52.5288 62.868 52.881 62.7222 53.2482 62.7222H78.2064C78.4865 62.7222 78.76 62.8071 78.9908 62.9658C79.2216 63.1245 79.3988 63.3495 79.4991 63.611L124.821 181.754H202.125C202.492 181.754 202.845 181.9 203.104 182.16C203.364 182.42 203.51 182.772 203.51 183.139C203.51 183.506 203.364 183.858 203.104 184.118C202.845 184.378 202.492 184.524 202.125 184.524Z" fill="#49BEB7"/>
<path d="M65.2883 60.1145H48.8575C48.3477 60.1145 47.9344 60.5278 47.9344 61.0376V67.6653C47.9344 68.1751 48.3477 68.5883 48.8575 68.5883H65.2883C65.7981 68.5883 66.2114 68.1751 66.2114 67.6653V61.0376C66.2114 60.5278 65.7981 60.1145 65.2883 60.1145Z" fill="#49BEB7"/>
<path d="M157.235 84.1384C157.924 84.1384 158.482 83.5805 158.482 82.8923C158.482 82.204 157.924 81.6461 157.235 81.6461C156.547 81.6461 155.989 82.204 155.989 82.8923C155.989 83.5805 156.547 84.1384 157.235 84.1384Z" fill="#FF8A5C"/>
</g>
</svg>
