<svg width="300" height="237" viewBox="0 0 300 237" fill="none" xmlns="http://www.w3.org/2000/svg">
<g opacity="0.5">
<path d="M150 197.926C194.057 197.926 229.772 162.211 229.772 118.154C229.772 74.0968 194.057 38.3815 150 38.3815C105.943 38.3815 70.2277 74.0968 70.2277 118.154C70.2277 162.211 105.943 197.926 150 197.926Z" fill="#DBE8EC" fill-opacity="0.76"/>
<path d="M194.781 182.995H87.1536C86.9042 182.995 86.6573 182.945 86.428 182.847C86.1986 182.749 85.9915 182.605 85.8191 182.425C85.6468 182.245 85.5127 182.031 85.4251 181.798C85.3375 181.564 85.2981 181.315 85.3094 181.066L89.7583 82.4077C89.7797 81.933 89.9833 81.4847 90.3268 81.1564C90.6704 80.828 91.1273 80.6447 91.6025 80.6447H199.23C199.479 80.6447 199.726 80.6953 199.955 80.7933C200.185 80.8914 200.392 81.0349 200.564 81.2152C200.736 81.3955 200.87 81.6089 200.958 81.8424C201.046 82.076 201.085 82.3248 201.074 82.574L196.625 181.232C196.604 181.707 196.4 182.155 196.056 182.484C195.713 182.812 195.256 182.995 194.781 182.995Z" fill="#49BEB7"/>
<path d="M201.701 82.4077C201.68 81.933 201.476 81.4848 201.133 81.1564C200.789 80.828 200.332 80.6447 199.857 80.6447H199.229C199.479 80.6447 199.726 80.6953 199.955 80.7933C200.185 80.8914 200.392 81.0349 200.564 81.2152C200.736 81.3955 200.87 81.6089 200.958 81.8424C201.046 82.076 201.085 82.3248 201.074 82.574L196.625 181.232C196.603 181.707 196.4 182.155 196.056 182.484C195.713 182.812 195.256 182.995 194.781 182.995H213.537C213.786 182.995 214.033 182.945 214.262 182.847C214.492 182.749 214.699 182.605 214.871 182.425C215.044 182.245 215.178 182.031 215.265 181.798C215.353 181.564 215.392 181.315 215.381 181.066L201.701 82.4077Z" fill="#BADFDB"/>
<path d="M188.524 177.157H93.4766C93.2563 177.157 93.0383 177.112 92.8357 177.026C92.6332 176.939 92.4502 176.812 92.298 176.653C92.1458 176.494 92.0275 176.305 91.9501 176.099C91.8727 175.893 91.8379 175.673 91.8478 175.453L95.7767 88.3262C95.7956 87.9069 95.9755 87.5111 96.2789 87.2211C96.5822 86.9311 96.9857 86.7692 97.4054 86.7692H192.453C192.673 86.7692 192.891 86.8139 193.094 86.9005C193.296 86.987 193.479 87.1138 193.631 87.273C193.783 87.4322 193.902 87.6207 193.979 87.8269C194.057 88.0332 194.091 88.253 194.081 88.473L190.152 175.6C190.134 176.019 189.954 176.415 189.65 176.705C189.347 176.995 188.943 177.157 188.524 177.157Z" fill="#409CB5"/>
<path d="M108.134 80.3315C108.134 80.441 108.107 80.5489 108.055 80.6453H106.828C106.776 80.5489 106.749 80.441 106.749 80.3315C106.749 78.1253 105.563 76.2607 104.16 76.2607C102.757 76.2607 101.575 78.1253 101.575 80.3315C101.575 80.4376 101.58 80.5392 101.585 80.6453C101.691 82.713 102.826 84.4023 104.16 84.4023C104.239 84.403 104.318 84.3968 104.395 84.3838C104.485 84.3708 104.577 84.3756 104.665 84.398C104.753 84.4204 104.836 84.4599 104.909 84.5144C104.982 84.5688 105.043 84.637 105.09 84.7152C105.136 84.7934 105.167 84.8799 105.18 84.9699C105.193 85.06 105.188 85.1516 105.166 85.2398C105.143 85.3279 105.104 85.4108 105.049 85.4836C104.995 85.5565 104.927 85.6179 104.849 85.6644C104.77 85.7109 104.684 85.7415 104.594 85.7546C104.45 85.7768 104.305 85.7876 104.16 85.7869C102.051 85.7869 100.315 83.5069 100.195 80.6453C100.191 80.5392 100.191 80.4376 100.191 80.3315C100.191 77.3222 101.972 74.8761 104.16 74.8761C106.352 74.8761 108.134 77.3222 108.134 80.3315ZM122.091 80.3315C122.091 80.441 122.064 80.5489 122.012 80.6453H120.785C120.733 80.5489 120.706 80.441 120.706 80.3315C120.706 78.1253 119.52 76.2607 118.117 76.2607C116.714 76.2607 115.528 78.1253 115.528 80.3315C115.528 80.4376 115.532 80.5392 115.537 80.6453C115.643 82.713 116.783 84.4023 118.117 84.4023C118.196 84.403 118.275 84.3968 118.352 84.3838C118.534 84.3575 118.719 84.4044 118.866 84.5144C119.013 84.6243 119.111 84.7882 119.137 84.9699C119.163 85.1517 119.116 85.3365 119.006 85.4836C118.896 85.6308 118.733 85.7282 118.551 85.7546C118.407 85.7768 118.262 85.7876 118.117 85.7869C116.003 85.7869 114.268 83.5069 114.148 80.6453C114.143 80.5392 114.143 80.4376 114.143 80.3315C114.143 77.3222 115.925 74.8761 118.117 74.8761C120.305 74.8761 122.091 77.3222 122.091 80.3315ZM136.043 80.3315C136.043 80.441 136.016 80.5489 135.965 80.6453H134.737C134.685 80.5489 134.658 80.441 134.659 80.3315C134.659 78.1253 133.472 76.2607 132.074 76.2607C130.671 76.2607 129.485 78.1253 129.485 80.3315C129.485 80.4376 129.489 80.5392 129.494 80.6453C129.6 82.713 130.74 84.4023 132.074 84.4023C132.151 84.4028 132.228 84.3966 132.305 84.3838C132.486 84.3569 132.671 84.4032 132.819 84.5127C132.967 84.6222 133.065 84.7859 133.092 84.9676C133.118 85.1494 133.072 85.3344 132.963 85.482C132.853 85.6296 132.69 85.7276 132.508 85.7546C132.364 85.7764 132.219 85.7873 132.074 85.7869C129.96 85.7869 128.225 83.5069 128.105 80.6453C128.1 80.5392 128.1 80.4376 128.1 80.3315C128.1 77.3222 129.882 74.8761 132.074 74.8761C134.262 74.8761 136.043 77.3222 136.043 80.3315ZM150 80.3315C150 80.441 149.973 80.5489 149.922 80.6453H148.694C148.642 80.5489 148.615 80.441 148.615 80.3315C148.615 78.1253 147.429 76.2607 146.026 76.2607C144.623 76.2607 143.437 78.1253 143.437 80.3315C143.437 80.4376 143.442 80.5392 143.446 80.6453C143.552 82.713 144.692 84.4023 146.026 84.4023C146.105 84.403 146.184 84.3968 146.262 84.3838C146.443 84.3575 146.628 84.4044 146.775 84.5144C146.922 84.6243 147.02 84.7882 147.046 84.9699C147.072 85.1517 147.026 85.3365 146.916 85.4836C146.806 85.6308 146.642 85.7282 146.46 85.7546C146.316 85.7768 146.171 85.7876 146.026 85.7869C143.917 85.7869 142.177 83.5069 142.057 80.6453C142.052 80.5392 142.052 80.4376 142.052 80.3315C142.052 77.3222 143.838 74.8761 146.026 74.8761C148.219 74.8761 150 77.3222 150 80.3315ZM163.952 80.3315C163.953 80.441 163.926 80.5489 163.874 80.6453H162.646C162.594 80.5489 162.567 80.441 162.568 80.3315C162.568 78.1253 161.386 76.2607 159.983 76.2607C158.58 76.2607 157.394 78.1253 157.394 80.3315C157.394 80.4376 157.399 80.5392 157.403 80.6453C157.514 82.833 158.797 84.5915 160.214 84.3838C160.396 84.3569 160.581 84.4032 160.728 84.5127C160.876 84.6222 160.974 84.7859 161.001 84.9676C161.028 85.1494 160.981 85.3344 160.872 85.482C160.762 85.6296 160.599 85.7276 160.417 85.7546C160.273 85.7766 160.128 85.7874 159.983 85.7869C157.869 85.7869 156.134 83.5069 156.014 80.6453C156.009 80.5392 156.009 80.4376 156.009 80.3315C156.009 77.3222 157.791 74.8761 159.983 74.8761C162.171 74.8761 163.952 77.3222 163.952 80.3315ZM177.909 80.3315C177.91 80.441 177.883 80.5489 177.831 80.6453H176.603C176.551 80.5489 176.524 80.441 176.525 80.3315C176.525 78.1253 175.339 76.2607 173.935 76.2607C172.532 76.2607 171.351 78.1253 171.351 80.3315C171.351 80.4376 171.355 80.5392 171.36 80.6453C171.466 82.713 172.602 84.4023 173.935 84.4023C174.014 84.403 174.093 84.3968 174.171 84.3838C174.353 84.3575 174.537 84.4044 174.685 84.5144C174.832 84.6243 174.929 84.7882 174.955 84.9699C174.982 85.1517 174.935 85.3365 174.825 85.4836C174.715 85.6308 174.551 85.7282 174.369 85.7546C174.226 85.7768 174.081 85.7876 173.935 85.7869C171.826 85.7869 170.091 83.5069 169.971 80.6453C169.966 80.5392 169.966 80.4376 169.966 80.3315C169.966 77.3222 171.748 74.8761 173.935 74.8761C176.128 74.8761 177.909 77.3222 177.909 80.3315ZM190.846 80.3315C190.847 80.441 190.82 80.5489 190.768 80.6453H189.54C189.488 80.5489 189.461 80.441 189.462 80.3315C189.462 78.1253 188.275 76.2607 186.872 76.2607C185.469 76.2607 184.283 78.1253 184.283 80.3315C184.283 80.4376 184.288 80.5392 184.292 80.6453C184.398 82.713 185.538 84.4023 186.872 84.4023C186.951 84.403 187.03 84.3968 187.108 84.3838C187.29 84.3575 187.474 84.4044 187.621 84.5144C187.769 84.6243 187.866 84.7882 187.892 84.9699C187.919 85.1517 187.872 85.3365 187.762 85.4836C187.652 85.6308 187.488 85.7282 187.306 85.7546C187.163 85.7766 187.018 85.7874 186.872 85.7869C184.759 85.7869 183.023 83.5069 182.903 80.6453C182.898 80.5392 182.898 80.4376 182.898 80.3315C182.898 77.3222 184.68 74.8761 186.872 74.8761C189.06 74.8761 190.846 77.3222 190.846 80.3315Z" fill="#EE781D"/>
<path d="M203.64 170.018H202.103V169.962C202.611 169.999 203.123 170.018 203.64 170.018Z" fill="#25788E"/>
<path d="M189.091 90.5038L185.435 145.545C185.435 147.074 185.134 148.587 184.549 150C183.964 151.412 183.106 152.695 182.025 153.776C180.944 154.857 179.661 155.715 178.249 156.3C176.836 156.885 175.323 157.186 173.794 157.186C170.97 157.186 168.243 156.159 166.12 154.298C163.997 152.436 162.622 149.866 162.253 147.067L161.029 137.781H92.7822L96.438 90.5039L189.091 90.5038Z" fill="#409CB5"/>
<path d="M89.7622 157.186H89.7622C86.9385 157.186 84.2111 156.159 82.0879 154.298C79.9648 152.436 78.5906 149.866 78.2215 147.067L76.9968 137.781H161.029L162.253 147.067C162.622 149.866 163.997 152.436 166.12 154.298C168.243 156.159 170.97 157.186 173.794 157.186H89.7622Z" fill="#49BEB7"/>
<path d="M120.475 111.272H103.852C103.674 111.272 103.498 111.236 103.334 111.166C103.17 111.096 103.022 110.994 102.899 110.865C102.776 110.736 102.681 110.584 102.618 110.417C102.556 110.251 102.528 110.073 102.536 109.895L103.215 94.8217C103.231 94.4828 103.376 94.1629 103.621 93.9286C103.866 93.6942 104.192 93.5634 104.532 93.5634H121.155C121.333 93.5634 121.509 93.5995 121.673 93.6695C121.837 93.7394 121.984 93.8419 122.107 93.9706C122.231 94.0993 122.326 94.2515 122.389 94.4182C122.451 94.5849 122.479 94.7625 122.471 94.9404L121.792 110.014C121.776 110.353 121.631 110.673 121.386 110.907C121.141 111.142 120.814 111.272 120.475 111.272ZM141.462 111.272H124.839C124.661 111.272 124.484 111.236 124.321 111.166C124.157 111.096 124.009 110.994 123.886 110.865C123.763 110.736 123.668 110.584 123.605 110.417C123.542 110.251 123.514 110.073 123.522 109.895L124.202 94.8217C124.217 94.4829 124.363 94.163 124.608 93.9286C124.853 93.6942 125.179 93.5634 125.518 93.5634H142.142C142.32 93.5634 142.496 93.5995 142.66 93.6695C142.823 93.7394 142.971 93.8419 143.094 93.9706C143.217 94.0993 143.313 94.2515 143.375 94.4182C143.438 94.5849 143.466 94.7626 143.458 94.9404L142.778 110.014C142.763 110.353 142.618 110.673 142.373 110.907C142.127 111.142 141.801 111.272 141.462 111.272ZM162.449 111.272H145.826C145.647 111.272 145.471 111.236 145.308 111.166C145.144 111.096 144.996 110.994 144.873 110.865C144.75 110.736 144.654 110.584 144.592 110.417C144.529 110.251 144.501 110.073 144.509 109.895L145.189 94.8217C145.204 94.4828 145.35 94.163 145.595 93.9286C145.84 93.6942 146.166 93.5634 146.505 93.5634H163.129C163.307 93.5634 163.483 93.5995 163.646 93.6695C163.81 93.7394 163.958 93.8419 164.081 93.9706C164.204 94.0993 164.3 94.2515 164.362 94.4182C164.425 94.5849 164.453 94.7626 164.445 94.9404L163.765 110.014C163.75 110.353 163.605 110.673 163.359 110.907C163.114 111.142 162.788 111.272 162.449 111.272ZM183.436 111.272H166.812C166.634 111.272 166.458 111.236 166.294 111.166C166.131 111.096 165.983 110.994 165.86 110.865C165.737 110.736 165.641 110.584 165.579 110.417C165.516 110.251 165.488 110.073 165.496 109.895L166.176 94.8217C166.191 94.4829 166.336 94.163 166.582 93.9286C166.827 93.6942 167.153 93.5634 167.492 93.5634H184.115C184.293 93.5634 184.47 93.5995 184.633 93.6695C184.797 93.7394 184.945 93.8419 185.068 93.9706C185.191 94.0993 185.287 94.2515 185.349 94.4182C185.412 94.5849 185.44 94.7626 185.432 94.9404L184.752 110.014C184.737 110.353 184.591 110.673 184.346 110.907C184.101 111.142 183.775 111.272 183.436 111.272ZM119.528 130.879H102.904C102.726 130.879 102.55 130.842 102.386 130.772C102.223 130.703 102.075 130.6 101.952 130.471C101.829 130.343 101.733 130.19 101.671 130.024C101.608 129.857 101.58 129.679 101.588 129.502L102.268 114.428C102.283 114.089 102.428 113.769 102.674 113.535C102.919 113.3 103.245 113.17 103.584 113.17H120.207C120.385 113.17 120.562 113.206 120.725 113.276C120.889 113.346 121.037 113.448 121.16 113.577C121.283 113.705 121.379 113.858 121.441 114.024C121.504 114.191 121.532 114.369 121.524 114.547L120.844 129.62C120.829 129.959 120.683 130.279 120.438 130.513C120.193 130.748 119.867 130.879 119.528 130.879ZM140.515 130.879H123.891C123.713 130.879 123.537 130.842 123.373 130.772C123.21 130.703 123.062 130.6 122.939 130.471C122.816 130.343 122.72 130.19 122.657 130.024C122.595 129.857 122.567 129.679 122.575 129.502L123.255 114.428C123.27 114.089 123.415 113.769 123.66 113.535C123.906 113.3 124.232 113.17 124.571 113.17H141.194C141.372 113.17 141.548 113.206 141.712 113.276C141.876 113.346 142.024 113.448 142.147 113.577C142.27 113.705 142.365 113.858 142.428 114.024C142.49 114.191 142.519 114.369 142.511 114.547L141.831 129.62C141.816 129.959 141.67 130.279 141.425 130.513C141.18 130.748 140.854 130.879 140.515 130.879ZM161.501 130.879H144.878C144.7 130.879 144.524 130.842 144.36 130.772C144.196 130.703 144.049 130.6 143.925 130.471C143.802 130.343 143.707 130.19 143.644 130.024C143.582 129.857 143.554 129.679 143.562 129.502L144.241 114.428C144.257 114.089 144.402 113.769 144.647 113.535C144.892 113.3 145.218 113.17 145.558 113.17H162.181C162.359 113.17 162.535 113.206 162.699 113.276C162.863 113.346 163.01 113.448 163.133 113.577C163.257 113.705 163.352 113.858 163.415 114.024C163.477 114.191 163.505 114.369 163.497 114.547L162.818 129.62C162.802 129.959 162.657 130.279 162.412 130.513C162.167 130.748 161.84 130.879 161.501 130.879ZM182.488 130.879H165.865C165.687 130.879 165.511 130.842 165.347 130.772C165.183 130.703 165.035 130.6 164.912 130.471C164.789 130.343 164.694 130.19 164.631 130.024C164.569 129.857 164.54 129.679 164.548 129.502L165.228 114.428C165.243 114.089 165.389 113.769 165.634 113.535C165.879 113.3 166.205 113.17 166.544 113.17H183.168C183.346 113.17 183.522 113.206 183.686 113.276C183.849 113.346 183.997 113.448 184.12 113.577C184.243 113.705 184.339 113.858 184.401 114.024C184.464 114.191 184.492 114.369 184.484 114.547L183.804 129.62C183.789 129.959 183.644 130.279 183.399 130.513C183.153 130.748 182.827 130.879 182.488 130.879ZM118.891 150.485H102.268C102.09 150.485 101.914 150.449 101.75 150.379C101.586 150.309 101.438 150.206 101.315 150.078C101.192 149.949 101.097 149.797 101.034 149.63C100.972 149.463 100.944 149.286 100.952 149.108L101.631 134.034C101.647 133.695 101.792 133.375 102.037 133.141C102.282 132.907 102.608 132.776 102.948 132.776H119.571C119.749 132.776 119.925 132.812 120.089 132.882C120.253 132.952 120.4 133.054 120.523 133.183C120.647 133.312 120.742 133.464 120.805 133.631C120.867 133.797 120.895 133.975 120.887 134.153L120.208 149.227C120.192 149.565 120.047 149.885 119.802 150.12C119.557 150.354 119.23 150.485 118.891 150.485ZM139.878 150.485H123.255C123.077 150.485 122.9 150.449 122.737 150.379C122.573 150.309 122.425 150.206 122.302 150.078C122.179 149.949 122.084 149.797 122.021 149.63C121.958 149.463 121.93 149.286 121.938 149.108L122.618 134.034C122.633 133.695 122.779 133.375 123.024 133.141C123.269 132.907 123.595 132.776 123.934 132.776H140.558C140.736 132.776 140.912 132.812 141.076 132.882C141.239 132.952 141.387 133.054 141.51 133.183C141.633 133.312 141.729 133.464 141.791 133.631C141.854 133.797 141.882 133.975 141.874 134.153L141.194 149.227C141.179 149.565 141.034 149.885 140.789 150.12C140.543 150.354 140.217 150.485 139.878 150.485ZM160.865 150.485H144.241C144.063 150.485 143.887 150.449 143.724 150.379C143.56 150.309 143.412 150.206 143.289 150.078C143.166 149.949 143.07 149.797 143.008 149.63C142.945 149.463 142.917 149.286 142.925 149.108L143.605 134.034C143.62 133.695 143.766 133.375 144.011 133.141C144.256 132.907 144.582 132.776 144.921 132.776H161.545C161.723 132.776 161.899 132.812 162.063 132.882C162.226 132.952 162.374 133.054 162.497 133.183C162.62 133.312 162.716 133.464 162.778 133.631C162.841 133.797 162.869 133.975 162.861 134.153L162.181 149.227C162.166 149.565 162.021 149.885 161.775 150.12C161.53 150.354 161.204 150.485 160.865 150.485ZM181.852 150.485H165.228C165.05 150.485 164.874 150.449 164.71 150.379C164.547 150.309 164.399 150.206 164.276 150.078C164.153 149.949 164.057 149.797 163.995 149.63C163.932 149.463 163.904 149.286 163.912 149.108L164.592 134.034C164.607 133.695 164.752 133.375 164.998 133.141C165.243 132.907 165.569 132.776 165.908 132.776H182.531C182.709 132.776 182.886 132.812 183.049 132.882C183.213 132.952 183.361 133.054 183.484 133.183C183.607 133.312 183.703 133.464 183.765 133.631C183.828 133.797 183.856 133.975 183.848 134.153L183.168 149.227C183.153 149.565 183.007 149.885 182.762 150.12C182.517 150.354 182.191 150.485 181.852 150.485ZM118.132 170.018H101.508C101.33 170.018 101.154 169.982 100.991 169.912C100.827 169.842 100.679 169.739 100.556 169.611C100.433 169.482 100.337 169.33 100.275 169.163C100.212 168.996 100.184 168.819 100.192 168.641L100.872 153.567C100.887 153.228 101.032 152.908 101.278 152.674C101.523 152.44 101.849 152.309 102.188 152.309H118.812C118.99 152.309 119.166 152.345 119.329 152.415C119.493 152.485 119.641 152.587 119.764 152.716C119.887 152.845 119.983 152.997 120.045 153.164C120.108 153.33 120.136 153.508 120.128 153.686L119.448 168.759C119.433 169.098 119.287 169.418 119.042 169.653C118.797 169.887 118.471 170.018 118.132 170.018ZM139.119 170.018H122.495C122.317 170.018 122.141 169.982 121.977 169.912C121.814 169.842 121.666 169.739 121.543 169.611C121.42 169.482 121.324 169.33 121.262 169.163C121.199 168.996 121.171 168.819 121.179 168.641L121.859 153.567C121.874 153.228 122.019 152.908 122.264 152.674C122.51 152.44 122.836 152.309 123.175 152.309H139.798C139.976 152.309 140.153 152.345 140.316 152.415C140.48 152.485 140.628 152.587 140.751 152.716C140.874 152.845 140.969 152.997 141.032 153.164C141.095 153.33 141.123 153.508 141.115 153.686L140.435 168.759C140.42 169.098 140.274 169.418 140.029 169.653C139.784 169.887 139.458 170.018 139.119 170.018ZM160.105 170.018H143.482C143.304 170.018 143.128 169.982 142.964 169.912C142.8 169.842 142.653 169.739 142.53 169.611C142.407 169.482 142.311 169.33 142.248 169.163C142.186 168.996 142.158 168.819 142.166 168.641L142.845 153.567C142.861 153.228 143.006 152.908 143.251 152.674C143.496 152.44 143.823 152.309 144.162 152.309H160.785C160.963 152.309 161.139 152.345 161.303 152.415C161.467 152.485 161.615 152.587 161.738 152.716C161.861 152.845 161.956 152.997 162.019 153.164C162.081 153.33 162.109 153.508 162.101 153.686L161.422 168.759C161.406 169.098 161.261 169.418 161.016 169.652C160.771 169.887 160.445 170.018 160.105 170.018ZM181.092 170.018H164.469C164.291 170.018 164.115 169.982 163.951 169.912C163.787 169.842 163.639 169.739 163.516 169.611C163.393 169.482 163.298 169.33 163.235 169.163C163.173 168.996 163.144 168.819 163.152 168.641L163.832 153.567C163.847 153.228 163.993 152.908 164.238 152.674C164.483 152.44 164.809 152.309 165.149 152.309H181.772C181.95 152.309 182.126 152.345 182.29 152.415C182.454 152.485 182.601 152.587 182.724 152.716C182.847 152.845 182.943 152.997 183.006 153.164C183.068 153.33 183.096 153.508 183.088 153.686L182.408 168.759C182.393 169.098 182.248 169.418 182.003 169.653C181.757 169.887 181.431 170.018 181.092 170.018Z" fill="#DBE8EC"/>
<path d="M148.249 96.4039L160.93 108.284" stroke="#EE781D" stroke-width="3" stroke-miterlimit="10" stroke-linecap="round"/>
<path d="M161.255 96.7717L147.923 107.916" stroke="#EE781D" stroke-width="3" stroke-miterlimit="10" stroke-linecap="round"/>
<path d="M105.216 116.098L117.896 127.978" stroke="#EE781D" stroke-width="3" stroke-miterlimit="10" stroke-linecap="round"/>
<path d="M118.222 116.465L104.89 127.61" stroke="#EE781D" stroke-width="3" stroke-miterlimit="10" stroke-linecap="round"/>
<path d="M225.114 179.302H186.167C185.967 179.302 185.769 179.251 185.594 179.153C185.418 179.055 185.271 178.914 185.165 178.743C185.06 178.573 185 178.378 184.991 178.177C184.982 177.977 185.024 177.777 185.114 177.598L204.587 126.873C204.685 126.677 204.835 126.512 205.022 126.397C205.208 126.282 205.422 126.222 205.641 126.222C205.859 126.222 206.074 126.282 206.26 126.397C206.446 126.512 206.596 126.677 206.694 126.873L226.168 177.598C226.257 177.777 226.3 177.977 226.291 178.177C226.282 178.378 226.222 178.573 226.116 178.743C226.011 178.914 225.863 179.055 225.688 179.153C225.512 179.251 225.315 179.302 225.114 179.302Z" fill="#FF8A5C"/>
<path d="M230.213 173.984H181.069C179.098 173.984 177.5 175.582 177.5 177.553V179.522C177.5 181.493 179.098 183.091 181.069 183.091H230.213C232.184 183.091 233.782 181.493 233.782 179.522V177.553C233.782 175.582 232.184 173.984 230.213 173.984Z" fill="#F9AE2B"/>
<path d="M197.553 145.196L191.796 160.192H219.486L213.729 145.196H197.553Z" fill="#F9AE2B"/>
<path d="M240.14 123.811C243.659 123.811 246.512 120.958 246.512 117.438C246.512 113.919 243.659 111.066 240.14 111.066C236.62 111.066 233.767 113.919 233.767 117.438C233.767 120.958 236.62 123.811 240.14 123.811Z" fill="#B9D4DB"/>
<path d="M223.323 125.342C225.148 125.342 226.627 123.863 226.627 122.038C226.627 120.213 225.148 118.734 223.323 118.734C221.498 118.734 220.019 120.213 220.019 122.038C220.019 123.863 221.498 125.342 223.323 125.342Z" fill="#B9D4DB"/>
<path d="M231.714 106.566C234.321 106.566 236.434 104.452 236.434 101.845C236.434 99.2382 234.321 97.1248 231.714 97.1248C229.106 97.1248 226.993 99.2382 226.993 101.845C226.993 104.452 229.106 106.566 231.714 106.566Z" fill="#B9D4DB"/>
<path d="M78.7929 196.421C82.9804 196.421 86.375 193.026 86.375 188.839C86.375 184.651 82.9804 181.257 78.7929 181.257C74.6053 181.257 71.2107 184.651 71.2107 188.839C71.2107 193.026 74.6053 196.421 78.7929 196.421Z" fill="#B9D4DB"/>
<path d="M63.3453 193.459C65.5264 193.459 67.2946 191.691 67.2946 189.51C67.2946 187.328 65.5264 185.56 63.3453 185.56C61.1641 185.56 59.3959 187.328 59.3959 189.51C59.3959 191.691 61.1641 193.459 63.3453 193.459Z" fill="#B9D4DB"/>
<path d="M61.4556 178.01C62.7138 178.01 63.7338 176.99 63.7338 175.732C63.7338 174.474 62.7138 173.454 61.4556 173.454C60.1975 173.454 59.1775 174.474 59.1775 175.732C59.1775 176.99 60.1975 178.01 61.4556 178.01Z" fill="#B9D4DB"/>
<path d="M73.6984 177.765C76.7147 177.765 79.1598 175.32 79.1598 172.303C79.1598 169.287 76.7147 166.842 73.6984 166.842C70.6822 166.842 68.2371 169.287 68.2371 172.303C68.2371 175.32 70.6822 177.765 73.6984 177.765Z" fill="#B9D4DB"/>
<path d="M111.622 68.79C120.723 68.79 128.1 61.4126 128.1 52.3121C128.1 43.2117 120.723 35.8343 111.622 35.8343C102.522 35.8343 95.1443 43.2117 95.1443 52.3121C95.1443 61.4126 102.522 68.79 111.622 68.79Z" fill="#BADFDB"/>
<path d="M111.622 41.5112H111.622C111.148 41.5112 110.764 41.8954 110.764 42.3692V55.8951C110.764 56.3689 111.148 56.7531 111.622 56.7531H111.622C112.096 56.7531 112.48 56.3689 112.48 55.8951V42.3692C112.48 41.8954 112.096 41.5112 111.622 41.5112Z" fill="#FF8A5C"/>
<path d="M111.622 63.1129C113.693 63.1129 113.696 59.8946 111.622 59.8946C109.551 59.8946 109.548 63.1129 111.622 63.1129Z" fill="#FF8A5C"/>
</g>
</svg>
