<svg width="118" height="125" viewBox="0 0 118 125" fill="none" xmlns="http://www.w3.org/2000/svg">
<path d="M52.8948 82.315C52.2165 81.5014 52.2165 80.281 52.8948 79.4674C53.5731 78.6537 54.5905 78.6537 55.2687 79.4674C55.8622 80.1793 56.5405 80.5861 57.2187 80.8912C58.2361 81.298 59.4231 81.298 60.5253 80.8912C61.2035 80.5861 61.8818 80.1793 62.4753 79.4674C63.1535 78.6537 64.1709 78.6537 64.8492 79.4674C65.5275 80.281 65.5275 81.5014 64.8492 82.315C63.1535 84.349 61.034 85.2643 58.8296 85.2643C56.6253 85.2643 54.5905 84.349 52.8948 82.315Z" fill="#333333"/>
<path d="M69.3336 124.693H48.9093C44.4037 124.693 40.7395 121.458 40.7395 117.479C40.7395 114.186 46.0601 105.649 47.1283 103.973C47.2993 103.704 47.5457 103.478 47.844 103.317C48.1422 103.156 48.4823 103.066 48.8317 103.054C49.5628 102.987 50.2164 103.331 50.6086 103.854L52.9022 106.895L57.3711 100.32C58.1084 99.2341 60.1365 99.2341 60.8738 100.32L65.3427 106.895L67.6363 103.854C68.0285 103.331 68.6759 102.982 69.4132 103.054C69.7626 103.066 70.1027 103.156 70.4009 103.317C70.6992 103.478 70.9456 103.704 71.1166 103.973C72.1828 105.649 77.5033 114.186 77.5033 117.479C77.5033 121.458 73.8392 124.693 69.3336 124.693ZM49.0931 108.35C46.828 112.193 44.8244 116.219 44.8244 117.479C44.8244 119.468 46.6565 121.086 48.9093 121.086H69.3336C71.5864 121.086 73.4185 119.468 73.4185 117.479C73.4185 116.219 71.4148 112.192 69.1498 108.35L66.948 111.266C66.562 111.779 65.886 112.046 65.2018 112.069C64.8574 112.061 64.5209 111.977 64.2231 111.824C63.9254 111.672 63.6761 111.455 63.4984 111.194L59.1214 104.753L54.7445 111.193C54.5672 111.453 54.318 111.67 54.0202 111.823C53.7223 111.976 53.3855 112.06 53.0411 112.067C52.3549 112.038 51.6808 111.777 51.2948 111.265L49.0931 108.35ZM81.5882 95.8383H36.6547C31.0237 95.8383 26.4425 91.7933 26.4425 86.8213V47.1463C26.4425 46.668 26.6577 46.2093 27.0407 45.8711C27.4238 45.5329 27.9433 45.3429 28.4849 45.3429H89.7579C90.2996 45.3429 90.8191 45.5329 91.2021 45.8711C91.5852 46.2093 91.8004 46.668 91.8004 47.1463V86.8213C91.8004 91.7933 87.2192 95.8383 81.5882 95.8383ZM30.5274 48.9497V86.8213C30.5274 89.8041 33.2765 92.2315 36.6547 92.2315H81.5882C84.9664 92.2315 87.7155 89.8041 87.7155 86.8213V48.9497H30.5274Z" fill="#333333"/>
<path d="M27.3272 33.428L26.5747 47.9149C26.4628 50.0238 27.8753 51.9632 30.8122 53.7331C33.7491 55.503 37.7501 56.887 42.8152 57.8851C47.8802 58.8832 53.3633 59.3498 59.2644 59.2849C65.1654 59.2201 70.6366 58.633 75.6779 57.5237C80.7192 56.4144 84.688 54.9428 87.5843 53.1087C90.4806 51.2747 91.8491 49.3047 91.6897 47.1988L90.6109 32.732L61.5043 41.3453C60.7606 41.5673 59.9479 41.6831 59.0661 41.6928C58.1843 41.7025 57.3692 41.6046 56.6207 41.399L27.3272 33.428ZM0.198274 18.8811C0.20619 19.5835 0.584572 20.0528 1.33344 20.289L58.4908 35.7885C58.6268 35.8176 58.7965 35.831 59 35.8288C59.2035 35.8265 59.3729 35.8094 59.5082 35.7773L92.5698 25.9751C94.0398 26.9975 95.263 28.687 96.2392 31.0436C97.2155 33.4001 97.8228 36.1196 98.061 39.2021C95.9368 40.3251 94.8873 42.0014 94.9124 44.231C94.9361 46.3384 95.9381 47.9616 97.9182 49.1005L95.1912 68.9699C95.1282 69.3983 95.2681 69.7786 95.6111 70.1108C95.9201 70.4434 96.3289 70.6069 96.8376 70.6013L106.605 70.4939C107.114 70.4883 107.519 70.3158 107.82 69.9765C108.155 69.6368 108.287 69.2536 108.214 68.8267L105.04 49.0222C106.994 47.84 107.959 46.1952 107.935 44.0878C107.91 41.8582 106.789 40.1753 104.571 39.0389C104.127 32.7208 102.409 27.6997 99.4157 23.9755L116.302 19.0247C117.045 18.7721 117.413 18.2946 117.405 17.5921C117.397 16.8897 117.019 16.4204 116.27 16.1843L59.1128 0.684684C58.9768 0.655634 58.807 0.642228 58.6035 0.644466C58.4 0.646703 58.2306 0.663839 58.0953 0.695872L1.30143 17.4486C0.558071 17.7011 0.190358 18.1786 0.198274 18.8811Z" fill="#333333"/>
</svg>
